<svg width="400" height="391" viewBox="0 0 400 391" fill="none" xmlns="http://www.w3.org/2000/svg">
<path d="M200 71.3087C268.589 71.3087 324.191 126.911 324.191 195.5C324.191 219.112 317.601 241.184 306.161 259.979C305.939 258.953 305.695 258.053 305.586 257.29L296.538 234.672C294.798 229.8 289.231 227.712 284.359 229.452C282.62 230.148 281.228 231.54 280.184 232.932C278.096 231.888 275.312 231.888 273.225 232.932C271.137 233.628 269.745 235.02 268.701 237.107C266.613 236.412 264.525 236.412 262.438 237.456C261.742 237.804 261.046 238.151 260.35 238.499L253.391 220.753C251.651 215.882 246.083 213.794 241.212 215.533C239.124 216.577 237.384 217.97 236.34 220.058H218.246C216.158 220.058 214.766 221.449 214.766 223.537C214.766 225.625 216.158 227.017 218.246 227.017H235.645V227.713L243.648 247.547C242.256 247.547 240.864 247.894 239.472 248.242C233.904 250.33 231.121 256.941 233.208 262.509L241.907 284.432C243.299 288.259 246.084 291.043 249.911 292.435C252.695 293.826 255.479 294.523 258.958 296.61C261.573 298.179 263.871 299.569 265.889 300.789C246.791 312.765 224.205 319.691 200 319.691C171.106 319.691 144.516 309.824 123.417 293.274C124.273 292.088 125.251 290.46 126.383 288.259C128.123 286.171 133.69 273.644 151.784 263.553C156.655 260.769 159.439 258.682 161.179 257.29H225.205C227.293 257.29 228.685 255.897 228.685 253.81C228.684 251.722 227.293 250.33 225.205 250.33H166.398V133.762H283.664C286.796 133.762 289.232 136.198 289.232 139.329V220.058C289.232 222.145 290.623 223.537 292.711 223.537C294.799 223.537 296.19 222.145 296.19 220.058V139.329C296.19 132.37 290.623 126.802 283.664 126.802H134.386C127.426 126.802 121.858 132.37 121.858 139.329V150.812C120.467 150.464 119.075 150.464 118.031 150.812C115.248 151.16 113.16 152.9 111.768 154.987C110.028 157.771 109.332 162.294 107.94 167.514C106.549 173.429 105.156 180.388 102.721 183.868C96.1095 192.915 94.3695 217.273 97.501 230.844C99.9305 241.95 97.1677 246.825 97.1534 246.851L91.5128 255.995C81.5095 238.095 75.8087 217.463 75.8087 195.5C75.8087 126.911 131.411 71.3087 200 71.3087ZM243.648 221.449C244.691 221.101 246.083 221.449 246.779 222.841C248.171 226.32 258.957 253.112 258.262 251.723C260.002 255.898 266.265 253.462 264.873 248.939L263.482 245.807C263.134 244.415 263.829 243.372 264.873 243.023C266.961 242.328 268.353 244.763 268.005 244.415C268.005 244.422 268.009 244.763 268.354 244.763C270.441 248.59 276.008 246.155 274.616 242.327C274.616 242.327 274.617 241.979 274.269 241.631C273.921 240.587 274.617 239.544 275.66 238.848C276.704 238.5 278.096 238.848 278.792 240.239C278.786 240.233 278.45 239.904 279.14 241.283C279.836 243.023 281.924 244.067 283.664 243.371C285.404 242.675 286.447 240.587 285.751 238.848C285.403 237.804 285.752 236.412 287.144 235.716C288.187 235.368 289.58 235.716 290.275 237.107L299.322 259.726C300.018 261.813 300.018 263.901 299.322 265.641C298.987 266.648 297.195 269.761 295.819 274.511C288.995 282.777 281.122 290.144 272.403 296.41C268.008 293.52 263.522 291.137 262.785 290.694C258.61 288.259 255.827 287.215 253.043 285.823C250.955 285.127 249.563 283.387 248.867 281.648L240.168 259.726C239.472 257.638 240.516 255.202 242.256 254.506C244.344 253.81 246.779 254.854 247.475 256.594L251.999 268.077C252.695 269.817 254.783 270.86 256.523 270.164C258.262 269.468 259.306 267.38 258.61 265.641C255.131 256.942 245.736 233.281 242.256 224.581C241.908 223.537 242.256 222.145 243.648 221.449ZM119.075 157.075C119.771 157.075 120.815 157.075 121.858 157.423V244.415C121.859 250.33 126.035 255.898 132.994 256.941H148.652C148.652 256.941 148.305 256.942 148.305 257.29C129.515 267.729 121.511 283.038 120.467 284.431C119.271 286.025 118.382 287.381 117.736 288.539C109.258 281.037 101.814 272.393 95.6417 262.85L103.068 250.679C103.416 249.983 107.593 243.719 104.461 229.105C101.677 216.23 104.112 194.308 108.636 187.696C112.115 183.173 113.508 175.517 114.899 168.558C115.943 164.382 116.64 159.859 117.684 158.119C118.032 157.423 118.727 157.423 119.075 157.075ZM159.44 250.679H133.69C130.906 250.331 128.818 247.894 128.818 245.11V139.329C128.818 136.197 131.254 133.762 134.386 133.762H159.44V250.679ZM202.936 201.615C201.544 200.223 199.455 200.223 198.064 201.615L190.757 208.922L183.449 201.615C182.057 200.223 179.969 200.223 178.577 201.615C177.186 203.007 177.186 205.095 178.577 206.486L185.885 213.794L178.577 221.102C177.186 222.493 177.186 224.581 178.577 225.973C179.969 227.365 182.057 227.365 183.449 225.973L190.757 218.665L198.064 225.973C201.195 229.104 206.414 224.233 202.936 221.102L195.628 213.794L202.936 206.486C204.327 205.095 204.327 203.007 202.936 201.615ZM218.941 200.223C216.854 200.223 215.462 201.615 215.462 203.702C215.462 205.79 216.854 207.183 218.941 207.183H260.698C262.786 207.182 264.178 205.79 264.178 203.702C264.178 201.615 262.786 200.223 260.698 200.223H218.941ZM144.129 182.824C138.909 182.824 134.733 187 134.733 192.22C134.733 197.439 138.909 201.615 144.129 201.615C149.348 201.615 153.523 197.439 153.523 192.22C153.523 187 149.348 182.824 144.129 182.824ZM144.129 189.784C145.521 189.784 146.565 190.828 146.565 192.22C146.565 193.612 145.521 194.655 144.129 194.655C142.737 194.655 141.693 193.612 141.693 192.22C141.693 190.828 142.737 189.784 144.129 189.784ZM218.941 172.386C216.854 172.386 215.462 173.778 215.462 175.865C215.462 177.953 216.854 179.345 218.941 179.345H275.66C277.4 179.345 279.14 177.953 279.14 175.865C279.14 173.777 277.748 172.386 275.66 172.386H218.941ZM205.371 155.684C203.979 154.292 201.891 154.292 200.499 155.684L186.232 169.95L181.014 164.731C179.622 163.339 177.534 163.339 176.142 164.731C174.75 166.122 174.75 168.21 176.142 169.602L182.405 175.865C184.493 177.953 187.973 177.953 190.408 175.865L205.719 160.555C206.763 159.163 206.763 157.076 205.371 155.684ZM218.941 152.552C216.854 152.552 215.462 153.944 215.462 156.031C215.462 158.119 216.854 159.511 218.941 159.511H260.698C262.786 159.511 264.178 158.119 264.178 156.031C264.178 153.944 262.786 152.552 260.698 152.552H218.941Z" fill="white"/>
<path d="M83.8395 286.804L79.6824 281.342L81.1253 275.907L82.2161 270.811L84.7241 260.862L89.2879 266.859L87.6493 273.638L86.4631 277.377L83.8395 286.804ZM66.6806 273.867C69.9956 271.344 73.2941 269.826 76.576 269.313C79.8503 268.79 82.9219 269.141 85.7908 270.364C88.6421 271.585 91.0883 273.537 93.1292 276.218C95.1852 278.92 96.4167 281.811 96.8239 284.892C97.2311 287.973 96.7464 291.022 95.3698 294.039C93.9932 297.056 91.6524 299.822 88.3472 302.337C85.0322 304.86 81.7375 306.383 78.4631 306.906C75.1888 307.429 72.1259 307.08 69.2745 305.859C66.4132 304.645 63.9546 302.688 61.8986 299.986C59.8577 297.304 58.6337 294.423 58.2265 291.342C57.8019 288.258 58.2779 285.208 59.6545 282.191C61.0235 279.165 63.3655 276.39 66.6806 273.867ZM71.6397 280.384C69.4924 282.018 67.9262 283.718 66.9413 285.483C65.9488 287.238 65.5122 288.985 65.6314 290.723C65.7505 292.46 66.4013 294.106 67.5837 295.66C68.766 297.213 70.1787 298.279 71.8218 298.857C73.4649 299.435 75.2685 299.484 77.2324 299.005C79.1888 298.516 81.2407 297.455 83.3881 295.821C85.5354 294.187 87.1053 292.492 88.0978 290.736C89.0827 288.971 89.5156 287.219 89.3965 285.482C89.2773 283.744 88.6265 282.098 87.4442 280.545C86.2618 278.991 84.8491 277.925 83.206 277.348C81.5629 276.77 79.7631 276.725 77.8067 277.214C75.8427 277.693 73.7871 278.749 71.6397 280.384Z" fill="white"/>
<path d="M170.528 328.079L178.191 330.631L170.352 354.169C169.472 356.811 168.07 358.914 166.148 360.475C164.237 362.041 161.97 363.003 159.348 363.362C156.729 363.708 153.921 363.383 150.924 362.385C147.916 361.383 145.467 359.958 143.579 358.11C141.695 356.251 140.458 354.122 139.867 351.723C139.277 349.325 139.421 346.804 140.302 344.161L148.14 320.623L155.803 323.175L148.183 346.058C147.723 347.439 147.615 348.766 147.859 350.04C148.115 351.318 148.696 352.448 149.6 353.431C150.505 354.414 151.695 355.151 153.17 355.642C154.656 356.137 156.05 356.261 157.352 356.013C158.665 355.768 159.802 355.21 160.761 354.336C161.732 353.467 162.447 352.342 162.907 350.962L170.528 328.079Z" fill="white"/>
<path d="M207.183 330.006V368.207H199.106V330.006H207.183Z" fill="white"/>
<path d="M227.848 335.588L225.744 329.27L255.511 319.357L257.615 325.675L246.519 329.37L256.486 359.296L248.911 361.819L238.945 331.893L227.848 335.588Z" fill="white"/>
<path d="M56.095 221.674L39.9917 225.043L38.3643 217.265L66.4081 211.398L67.9706 218.865L62.8767 219.931L62.9378 220.223C64.7135 220.512 66.2544 221.289 67.5607 222.552C68.8644 223.804 69.7365 225.483 70.1771 227.589C70.5694 229.463 70.4884 231.202 69.9344 232.804C69.3803 234.406 68.4023 235.773 67.0002 236.905C65.5956 238.025 63.7991 238.82 61.6107 239.291L43.7547 243.027L42.1273 235.249L58.5957 231.803C60.2485 231.445 61.464 230.727 62.2422 229.649C63.0204 228.572 63.2554 227.296 62.9473 225.824C62.7512 224.886 62.3548 224.055 61.7581 223.328C61.1493 222.604 60.3667 222.082 59.4102 221.761C58.4512 221.428 57.3462 221.399 56.095 221.674Z" fill="white"/>
<path d="M68.9114 169.482L41.0678 162.728L42.9412 155.005L70.7848 161.76L68.9114 169.482ZM38.4197 157.978C38.1412 159.126 37.5216 160.018 36.5609 160.655C35.591 161.277 34.5683 161.458 33.4928 161.197C32.4293 160.939 31.6151 160.313 31.0502 159.318C30.4761 158.309 30.3283 157.23 30.6069 156.082C30.8854 154.934 31.5096 154.049 32.4794 153.427C33.4401 152.79 34.4522 152.601 35.5157 152.859C36.5912 153.119 37.4161 153.755 37.9901 154.764C38.555 155.758 38.6982 156.83 38.4197 157.978Z" fill="white"/>
<path d="M88.9276 121.168L85.2503 118.181L80.6166 96.3434L80.4573 96.2141L71.9183 106.725L66.9959 102.726L81.5688 84.7881L85.579 88.0461L90.4208 108.947L90.5801 109.076L99.1897 98.4787L104.112 102.478L88.9276 121.168Z" fill="white"/>
<path d="M147.629 45.9026L140.252 49.414C139.663 48.5238 138.985 47.807 138.217 47.2637C137.443 46.7091 136.605 46.323 135.703 46.1053C134.8 45.8875 133.856 45.8414 132.869 45.9669C131.893 46.087 130.911 46.3823 129.923 46.8526C128.138 47.7024 126.794 48.8862 125.891 50.4039C124.983 51.9103 124.565 53.6794 124.637 55.711C124.703 57.7314 125.306 59.9375 126.444 62.3291C127.614 64.7881 128.963 66.6804 130.489 68.006C132.026 69.3262 133.661 70.0977 135.392 70.3204C137.123 70.5431 138.859 70.2402 140.599 69.4118C141.576 68.9468 142.418 68.3874 143.126 67.7336C143.846 67.0745 144.413 66.343 144.829 65.5389C145.24 64.7237 145.488 63.8552 145.572 62.9335C145.668 62.0064 145.581 61.0425 145.311 60.0416L152.704 56.5638C153.267 58.2379 153.517 59.992 153.453 61.8264C153.396 63.6442 153.002 65.4359 152.273 67.2017C151.549 68.951 150.466 70.582 149.024 72.0948C147.588 73.591 145.764 74.8656 143.552 75.9185C140.475 77.3829 137.393 77.9962 134.305 77.7584C131.228 77.5152 128.36 76.4083 125.7 74.4378C123.052 72.4619 120.835 69.5988 119.05 65.8485C117.26 62.0871 116.444 58.5503 116.603 55.2382C116.761 51.9262 117.725 49.0024 119.493 46.4669C121.255 43.9201 123.652 41.9252 126.684 40.4821C128.683 39.5308 130.669 38.9296 132.643 38.6786C134.628 38.4223 136.539 38.5178 138.378 38.965C140.21 39.401 141.911 40.196 143.479 41.35C145.059 42.4987 146.442 44.0162 147.629 45.9026Z" fill="white"/>
<path d="M191.82 62.8755V34.2243H199.523V39.2234H199.822C200.344 37.4451 201.221 36.1021 202.452 35.1943C203.683 34.2741 205.101 33.814 206.705 33.814C207.103 33.814 207.532 33.8388 207.992 33.8886C208.452 33.9383 208.856 34.0067 209.204 34.0937V41.1446C208.831 41.0327 208.315 40.9332 207.656 40.8462C206.997 40.7591 206.394 40.7156 205.847 40.7156C204.678 40.7156 203.633 40.9705 202.713 41.4804C201.805 41.9778 201.084 42.6742 200.549 43.5695C200.027 44.4649 199.766 45.497 199.766 46.6659V62.8755H191.82Z" fill="white"/>
<path d="M254.643 75.1346C252.993 74.349 251.658 73.3625 250.64 72.1752C249.626 70.9767 249.013 69.6314 248.801 68.1392C248.605 66.6412 248.913 65.0388 249.726 63.3322C250.41 61.8949 251.248 60.8135 252.241 60.0878C253.234 59.3622 254.326 58.9183 255.519 58.7561C256.712 58.5939 257.959 58.6365 259.259 58.8838C260.571 59.1365 261.897 59.5057 263.236 59.9915C264.815 60.5505 266.097 60.9818 267.082 61.2853C268.072 61.5776 268.842 61.6823 269.391 61.5993C269.94 61.5164 270.346 61.1998 270.607 60.6496L270.656 60.5485C271.163 59.4819 271.219 58.4962 270.823 57.5917C270.439 56.6925 269.635 55.9516 268.411 55.369C267.12 54.7544 265.956 54.5517 264.92 54.7609C263.889 54.9589 263.047 55.4257 262.394 56.1615L256.015 52.4638C257.1 51.0522 258.409 50.0089 259.942 49.334C261.481 48.6478 263.177 48.3674 265.032 48.4927C266.903 48.6122 268.872 49.1637 270.938 50.1471C272.375 50.8312 273.67 51.6543 274.824 52.6165C275.988 53.584 276.913 54.6647 277.598 55.8584C278.294 57.0575 278.676 58.3545 278.742 59.7494C278.813 61.133 278.482 62.5939 277.75 64.1322L269.445 81.5809L262.64 78.3421L264.348 74.7546L264.146 74.6584C263.346 75.2691 262.45 75.7175 261.46 76.0037C260.475 76.2787 259.412 76.3577 258.269 76.2408C257.132 76.1126 255.923 75.7439 254.643 75.1346ZM259.055 71.1611C260.111 71.6635 261.141 71.8993 262.148 71.8687C263.159 71.8269 264.066 71.5562 264.869 71.0567C265.671 70.5572 266.289 69.8527 266.722 68.9433L268.028 66.198C267.734 66.237 267.361 66.2248 266.91 66.1612C266.474 66.0918 265.991 65.9927 265.46 65.8639C264.935 65.7239 264.412 65.5783 263.892 65.4271C263.377 65.2646 262.91 65.118 262.49 64.987C261.589 64.7097 260.76 64.5561 260.003 64.5263C259.246 64.4965 258.584 64.6289 258.017 64.9236C257.455 65.207 257.013 65.6856 256.693 66.3593C256.228 67.3361 256.226 68.2512 256.688 69.1044C257.166 69.9517 257.955 70.6373 259.055 71.1611Z" fill="white"/>
<path d="M331.813 101.4L327.18 105.164L316.03 91.4393L320.662 87.6755L331.813 101.4ZM300.977 108.883L324.822 89.5116C326.434 88.2021 328.025 87.4298 329.596 87.1946C331.176 86.9691 332.678 87.1909 334.102 87.8599C335.527 88.5289 336.808 89.5632 337.945 90.9627C338.713 91.9085 339.343 92.8312 339.833 93.7306C340.331 94.6396 340.679 95.3343 340.877 95.8144L335.35 98.4779C335.232 98.1739 335.061 97.8159 334.838 97.4038C334.624 97.0015 334.367 96.6169 334.069 96.2502C333.332 95.3429 332.606 94.8832 331.892 94.8711C331.186 94.8512 330.457 95.147 329.705 95.7586L305.976 115.036L300.977 108.883Z" fill="white"/>
<path d="M360.001 167.608L354.201 169.015L350.133 152.247L355.934 150.84L360.001 167.608ZM363.528 153.029L365.401 160.751L339.443 167.048C338.73 167.221 338.201 167.465 337.855 167.779C337.521 168.09 337.322 168.459 337.259 168.883C337.198 169.32 337.231 169.799 337.357 170.318C337.445 170.681 337.563 171.036 337.712 171.384C337.872 171.729 337.994 171.994 338.077 172.178L332.625 174.787C332.411 174.429 332.14 173.919 331.813 173.256C331.474 172.597 331.164 171.769 330.885 170.775C330.361 168.932 330.212 167.24 330.44 165.701C330.671 164.173 331.291 162.877 332.3 161.814C333.309 160.75 334.727 160.003 336.555 159.572L363.528 153.029Z" fill="white"/>
<path d="M330.242 224.13C330.845 221.245 331.949 218.884 333.553 217.047C335.167 215.225 337.168 213.98 339.556 213.311C341.957 212.644 344.637 212.62 347.594 213.239C350.479 213.843 352.894 214.932 354.838 216.508C356.783 218.084 358.151 220.015 358.943 222.303C359.732 224.602 359.839 227.128 359.263 229.878C358.876 231.728 358.217 233.388 357.287 234.858C356.367 236.342 355.192 237.558 353.761 238.503C352.329 239.461 350.647 240.088 348.718 240.383C346.801 240.681 344.65 240.58 342.264 240.081L340.128 239.634L345.083 215.953L349.903 216.962L346.48 233.321C347.6 233.555 348.642 233.519 349.609 233.213C350.575 232.907 351.392 232.373 352.059 231.611C352.737 230.863 353.194 229.923 353.43 228.791C353.678 227.611 353.623 226.507 353.266 225.479C352.919 224.466 352.342 223.609 351.536 222.907C350.743 222.207 349.793 221.735 348.688 221.491L344.106 220.532C342.718 220.242 341.466 220.247 340.348 220.546C339.229 220.858 338.295 221.432 337.549 222.267C336.803 223.101 336.293 224.17 336.021 225.472C335.84 226.337 335.796 227.153 335.889 227.922C335.982 228.691 336.219 229.382 336.599 229.996C336.979 230.609 337.494 231.123 338.144 231.538L336.164 238.633C334.512 237.906 333.159 236.841 332.106 235.44C331.062 234.052 330.367 232.395 330.021 230.468C329.684 228.555 329.758 226.442 330.242 224.13Z" fill="white"/>
<path d="M311.282 271.134L334.081 288.486L329.416 294.616L325.438 291.588L325.257 291.826C326.356 293.318 326.894 294.829 326.87 296.359C326.857 297.896 326.365 299.303 325.393 300.579C325.152 300.896 324.873 301.222 324.554 301.558C324.236 301.894 323.937 302.174 323.657 302.399L318.046 298.129C318.361 297.9 318.753 297.549 319.221 297.077C319.689 296.606 320.089 296.152 320.421 295.717C321.129 294.786 321.558 293.801 321.71 292.76C321.864 291.736 321.747 290.741 321.358 289.773C320.962 288.815 320.299 287.982 319.368 287.274L306.469 277.457L311.282 271.134Z" fill="white"/>
<circle cx="111.143" cy="319.691" r="8.42556" fill="white"/>
<circle cx="289.506" cy="319.691" r="8.42556" fill="white"/>
</svg>
