<svg width="489" height="150" viewBox="0 0 489 150" fill="none" xmlns="http://www.w3.org/2000/svg">
<g clip-path="url(#clip0_1_2)">
<path d="M215.471 113.833C206.665 113.833 200.587 111.786 197.238 107.693C194.943 104.84 193.796 100.933 193.796 95.9714C193.796 93.6767 194.044 91.1649 194.54 88.4361L197.796 69.8303C200.711 53.2092 210.882 44.8986 228.309 44.8986C235.504 44.8986 240.961 46.4491 244.682 49.55C248.404 52.589 250.264 56.7753 250.264 62.1089C250.264 64.2796 249.954 66.4813 249.334 68.714C248.776 70.9467 248.217 72.6212 247.659 73.7375L246.729 75.412H230.263C231.875 73.1793 232.682 70.6055 232.682 67.6906C232.682 62.1089 230.356 59.3181 225.704 59.3181C219.441 59.3181 215.688 62.9462 214.448 70.2024L211.285 88.0639C210.975 89.7385 210.82 91.382 210.82 92.9945C210.82 97.2738 213.332 99.4135 218.355 99.4135C223.441 99.4135 226.697 96.8707 228.123 91.7851H220.495L222.355 81.4589H247.008L245.52 89.4594L245.054 92.1572C242.45 106.608 232.589 113.833 215.471 113.833Z" fill="black"/>
<path d="M165.643 112.531L166.201 97.925H150.665L146.107 112.531H128.338L152.247 45.5498H182.946L183.318 112.531H165.643ZM161.829 61.8298L154.479 85.4591H166.666L167.689 61.8298H161.829Z" fill="black"/>
<path d="M110.267 45.5498C117.338 45.5498 122.361 47.1003 125.338 50.2012C127.571 52.558 128.687 55.5349 128.687 59.132C128.687 60.3724 128.563 61.6748 128.315 63.0392L127.013 70.2955C126.268 74.3267 124.966 77.5827 123.105 80.0635C121.307 82.5442 119.291 84.3118 117.059 85.3661L125.524 112.531H106.732L98.9179 87.5058H93.1501L89.336 112.531H71.4744L83.2891 45.5498H110.267ZM104.407 60.0623H97.4295L95.0107 76.2493H101.523C104.81 76.2493 107.166 75.4741 108.593 73.9236C110.019 72.3111 110.733 70.2024 110.733 67.5976C110.733 62.5741 108.624 60.0623 104.407 60.0623Z" fill="black"/>
<path d="M292.539 56.8859C291.135 56.8859 289.881 56.911 288.778 56.9612C287.725 57.0113 286.195 57.1367 284.189 57.3373C282.183 57.4877 280.478 57.8388 279.074 58.3904C277.72 58.8919 276.291 59.5689 274.787 60.4214C271.828 62.1264 269.972 64.9598 269.22 68.9215L265.459 90.1341C265.359 90.7861 265.309 91.6135 265.309 92.6165C265.309 93.5693 265.66 94.7227 266.362 96.0767C267.064 97.4307 268.142 98.534 269.596 99.3865C271.05 100.239 272.831 100.941 274.937 101.493C278.197 102.295 281.807 102.696 285.769 102.696C289.731 102.696 293.517 102.395 297.128 101.794C300.738 101.192 303.346 100.59 304.951 99.9883L307.358 99.0104L309.314 109.918C306.004 110.971 301.666 111.974 296.3 112.926C290.984 113.879 286.596 114.356 283.136 114.356C271.101 114.356 262.601 112.224 257.636 107.962C253.825 104.702 251.919 100.189 251.919 94.4218C251.919 92.6666 252.095 90.8111 252.446 88.8554L255.981 68.9215C257.235 61.8506 261.096 56.1337 267.565 51.7708C274.084 47.408 283.362 45.2265 295.397 45.2265C301.164 45.2265 306.104 45.8283 310.216 47.0318C314.378 48.2354 317.538 49.9404 319.694 52.147C323.104 55.557 324.809 59.6441 324.809 64.4082C324.809 65.6619 324.684 66.9657 324.433 68.3197L323.23 75.4658C322.076 82.1355 319.243 87.2005 314.73 90.6607C310.216 94.1209 304.875 95.851 298.707 95.851C294.094 95.851 291.486 94.1209 290.884 90.6607C290.182 91.9144 289.029 93.0929 287.424 94.1961C285.819 95.2994 283.763 95.851 281.256 95.851C277.294 95.851 274.486 94.7728 272.831 92.6165C271.627 91.1622 271.025 89.2064 271.025 86.7491C271.025 85.7462 271.126 84.6429 271.326 83.4394L272.605 75.9924C273.307 72.131 274.887 69.0719 277.344 66.8153C279.851 64.5085 283.061 63.3551 286.973 63.3551C290.934 63.3551 293.592 64.2828 294.946 66.1383L295.322 64.1825H306.38L303.371 81.4084C303.271 81.9099 303.221 82.3361 303.221 82.6872C303.221 84.0412 303.797 84.7182 304.951 84.7182C307.308 84.7182 308.887 82.6872 309.69 78.6252L311.721 68.1693C311.871 67.3669 311.946 66.4893 311.946 65.5365C311.946 64.5837 311.67 63.4804 311.119 62.2267C310.567 60.973 309.74 59.9951 308.637 59.2931C307.583 58.5408 306.029 57.9641 303.973 57.5629C301.365 57.1116 299.184 56.8859 297.428 56.8859C295.623 56.8859 293.993 56.8859 292.539 56.8859ZM286.371 85.2447C288.327 85.2447 289.806 84.5677 290.809 83.2137L292.163 75.541C291.812 74.4378 290.533 73.8862 288.327 73.8862C287.424 73.8862 286.647 74.187 285.995 74.7888C285.343 75.3906 284.916 76.193 284.716 77.1959L283.813 82.0854C283.763 82.3361 283.738 82.6872 283.738 83.1385C283.738 83.5898 283.964 84.0662 284.415 84.5677C284.866 85.019 285.518 85.2447 286.371 85.2447Z" fill="black"/>
<circle cx="37.6088" cy="51.2271" r="13.5131" stroke="#213B9A"/>
<circle cx="37.6088" cy="81.9529" r="13.5131" stroke="#213B9A"/>
<circle cx="37.6088" cy="112.679" r="13.5131" stroke="#213B9A"/>
<path d="M32.7869 82.1708L38.3242 87.774L50.7061 70.8673" stroke="#213B9A" stroke-width="4" stroke-linecap="round"/>
<path d="M372.174 108.995C367.274 113.089 360.328 115.135 351.335 115.135C342.343 115.135 336.11 113.058 332.637 108.902C330.156 106.05 328.916 102.111 328.916 97.0877C328.916 94.8551 329.164 92.4053 329.66 89.7385L337.195 46.8522H353.94L346.405 89.3664C346.157 90.9168 346.033 92.5293 346.033 94.2039C346.033 98.5452 348.638 100.716 353.847 100.716C356.948 100.716 359.429 99.9096 361.29 98.2971C363.15 96.6846 364.453 93.7077 365.197 89.3664L372.732 46.8522H389.477L381.942 89.7385C380.391 98.4212 377.135 104.84 372.174 108.995ZM418.912 46.8522L407.191 113.833H390.352L402.167 46.8522H418.912ZM486.662 61.3647H463.777L454.567 113.833H437.729L446.939 61.3647H423.96L426.565 46.8522H489.267L486.662 61.3647Z" fill="black"/>
<path d="M189.075 0.00976562C205.286 0.420642 218.301 13.6905 218.301 30V45.9971C211.834 47.5647 206.834 50.8115 203.301 55.7393V30C203.301 29.7903 203.296 29.5816 203.287 29.374H15.0137C15.0051 29.5816 15 29.7903 15 30V119.81C15.0001 128.094 21.7159 134.809 30 134.81H188.301C196.585 134.809 203.301 128.094 203.301 119.81V111.929C206.512 113.197 210.569 113.833 215.472 113.833C216.438 113.833 217.381 113.808 218.301 113.762V119.81L218.291 120.584C217.887 136.537 205.028 149.395 189.075 149.8L188.301 149.81H30L29.2256 149.8C13.2725 149.395 0.414107 136.537 0.00976562 120.584L0 119.81V30C3.44996e-05 13.6905 13.0151 0.42067 29.2256 0.00976562L30 0H188.301L189.075 0.00976562Z" fill="#213B9A"/>
</g>
<defs>
<clipPath id="clip0_1_2">
<rect width="489" height="150" fill="white"/>
</clipPath>
</defs>
</svg>
