<svg width="316" height="272" viewBox="0 0 316 272" fill="none" xmlns="http://www.w3.org/2000/svg">
<path d="M43.835 211.662C45.0513 221.568 48.4425 229.351 54.0088 235.012C59.6939 240.672 67.289 243.502 76.7939 243.502C86.5366 243.502 93.4146 240.495 97.4287 234.48C101.562 228.466 103.071 220.919 101.956 211.839L91.4219 126.046H101.869C101.637 128.336 101.52 130.661 101.52 133.018C101.52 141.187 103.146 149.011 106.413 156.401L106.423 156.424C109.613 163.588 113.915 169.844 119.364 175.078L119.38 175.094L119.396 175.107C121.962 177.548 124.72 179.743 127.66 181.694L131.905 216.261C133.382 228.289 132.133 238.432 128.156 246.687C124.165 254.823 117.975 261.014 109.585 265.26C101.181 269.387 91.0973 271.451 79.335 271.451C68.2853 271.451 58.1175 269.446 48.833 265.437C39.5487 261.427 31.8521 255.354 25.7441 247.217C19.6217 238.962 15.7856 228.525 14.2363 215.907L3.20312 126.046H33.3223L43.835 211.662ZM196.44 269.328H167.568L158.041 191.733C158.878 191.769 159.717 191.788 160.56 191.788C170.344 191.788 179.074 190.606 186.441 187.902L196.44 269.328ZM314.312 152.227H271.896L286.274 269.328H256.689L242.312 152.227H213.743C215.395 149.504 216.823 146.562 218.043 143.431C220.25 137.822 221.601 132.018 222.096 126.046H311.098L314.312 152.227ZM165.938 182.746C165.769 182.755 165.6 182.764 165.43 182.772C165.6 182.764 165.769 182.755 165.938 182.746ZM168.361 182.585C168.011 182.613 167.657 182.642 167.301 182.666C167.228 182.671 167.154 182.674 167.081 182.679C167.512 182.65 167.939 182.619 168.361 182.585ZM168.891 182.542C168.78 182.552 168.668 182.56 168.557 182.569C168.813 182.548 169.068 182.525 169.321 182.501C169.178 182.514 169.035 182.529 168.891 182.542ZM170.364 182.397C170.116 182.424 169.867 182.449 169.616 182.474C169.867 182.449 170.116 182.424 170.364 182.397ZM171.549 182.261C171.247 182.298 170.944 182.334 170.638 182.368C170.944 182.334 171.247 182.298 171.549 182.261ZM172.611 182.123C172.279 182.169 171.944 182.212 171.605 182.254C171.944 182.212 172.279 182.169 172.611 182.123ZM178.837 180.932C178.705 180.965 178.573 180.998 178.44 181.03C178.573 180.998 178.705 180.965 178.837 180.932ZM182.097 179.992C181.694 180.125 181.284 180.254 180.868 180.378C181.076 180.316 181.283 180.252 181.487 180.188L182.097 179.992ZM123.862 166.972C123.615 166.709 123.372 166.442 123.131 166.174L123.862 166.972ZM122.939 165.959C122.76 165.757 122.582 165.552 122.405 165.347C122.582 165.552 122.76 165.757 122.939 165.959ZM203.362 151.592C203.252 151.73 203.141 151.867 203.029 152.003C202.968 152.078 202.905 152.152 202.843 152.227H202.841C203.016 152.017 203.191 151.806 203.362 151.591V151.592ZM175.463 150.227C175.519 150.365 175.578 150.502 175.636 150.638L175.635 150.639C175.485 150.285 175.337 149.923 175.194 149.551C175.015 149.77 174.834 149.986 174.653 150.197C174.835 149.985 175.015 149.769 175.194 149.55C175.282 149.779 175.372 150.005 175.463 150.227ZM198.828 142.001C198.778 142.104 198.728 142.206 198.677 142.307V142.305C198.728 142.204 198.779 142.103 198.828 142.001ZM199.248 141.08C199.145 141.324 199.036 141.563 198.925 141.799L199.248 141.08ZM201.494 133.322L201.475 133.428C201.491 133.334 201.506 133.241 201.521 133.147C201.512 133.206 201.504 133.264 201.494 133.322ZM201.644 132.345C201.635 132.409 201.625 132.472 201.615 132.536C201.625 132.472 201.635 132.409 201.644 132.345ZM202.009 127.909C202.004 128.08 201.999 128.251 201.992 128.421C201.999 128.251 202.004 128.08 202.009 127.909ZM202.021 126.046C202.025 126.291 202.025 126.537 202.025 126.784C202.025 127.076 202.022 127.366 202.016 127.655C202.022 127.366 202.025 127.076 202.025 126.784C202.025 126.537 202.024 126.291 202.021 126.046H202.021ZM277.435 0.641602C285.638 0.641602 292.629 2.19468 298.408 5.30078C304.294 8.32057 308.67 12.634 311.535 18.2422C314.507 23.764 315.69 30.2353 315.083 37.6553H292.192C292.592 32.557 291.172 28.4306 287.931 25.2754L287.292 24.6699C283.951 21.5931 279.29 20.0547 273.309 20.0547C267.663 20.0547 262.411 21.5215 257.554 24.4551C252.715 27.3023 248.545 31.3573 245.045 36.6201C241.563 41.797 239.079 47.8804 237.594 54.8691C236.09 61.944 235.961 68.1565 237.205 73.5059C238.538 78.855 241.053 82.9962 244.752 85.9297C248.539 88.8632 253.299 90.33 259.032 90.3301C263.531 90.3301 267.71 89.554 271.568 88.001C275.427 86.4479 278.664 84.2903 281.279 81.5293C283.913 78.6821 285.588 75.5758 286.303 72.2109L287.156 68.1992H262.017L265.62 51.2451H296.449C301.653 51.2451 305.303 52.5395 307.399 55.1279C309.495 57.7164 310.003 61.556 308.921 66.6465L300.338 107.025H280.358L282.944 94.8604H282.415C279.098 99.2604 274.845 102.668 269.657 105.084C264.487 107.414 258.682 108.578 252.243 108.578C242.893 108.578 235.087 106.292 228.826 101.719C222.583 97.0596 218.251 90.6748 215.829 82.5645C213.496 74.4542 213.438 65.1791 215.657 54.7393C217.931 44.0405 222.047 34.6358 228.005 26.5254C234.051 18.415 241.31 12.0739 249.779 7.50098C258.337 2.92817 267.555 0.641651 277.435 0.641602ZM72.4131 2.19434C79.2049 2.19434 84.9114 3.35902 89.5322 5.68848C94.2596 7.93172 97.6203 11.2106 99.6143 15.5244C101.626 19.7522 102.01 24.7999 100.763 30.667C99.6623 35.8438 97.3924 40.5031 93.9541 44.6445C90.6223 48.6996 86.0297 51.6334 80.1758 53.4453L80.0381 54.0918C85.2421 54.0918 88.8922 55.3864 90.9883 57.9746C93.1027 60.4767 93.6191 64.2737 92.5371 69.3643L84.5322 107.025H62.5684L71.041 67.1641H30.6855L22.2129 107.025H0.380859L22.6641 2.19434H72.4131ZM195.503 79.0303C192.115 77.2815 188.525 75.8232 184.746 74.6494L184.744 74.6514C177.906 72.4824 170.825 71.4033 163.54 71.4033C157.304 71.4034 151.17 72.2983 145.163 74.0742C139.138 75.8237 133.485 78.4683 128.231 81.9883L128.214 82.001L128.198 82.0117C122.995 85.5329 118.41 89.7479 114.468 94.6367C111.444 98.3526 108.936 102.498 106.91 107.025H96.3672L159.667 2.19434H182.16L195.503 79.0303ZM197.506 107.025H197.507H197.506ZM183.736 94.8682C184.147 95.056 184.556 95.252 184.962 95.4561C184.759 95.354 184.555 95.2542 184.351 95.1562L183.736 94.8682ZM183.216 83.5068C183.567 83.6232 183.917 83.7424 184.264 83.8643C183.913 83.741 183.56 83.6206 183.204 83.5029L183.216 83.5068ZM182.106 83.1504L182.632 83.3193C182.457 83.2633 182.282 83.2051 182.105 83.1504L180.985 82.8057C181.36 82.9168 181.734 83.0318 182.106 83.1504ZM144.356 63.0225H171.612L166.349 26.7842H165.819L144.356 63.0225ZM34.7295 48.1387H61.1924C65.4261 48.1386 69.1136 46.974 72.2549 44.6445C75.3963 42.3149 77.4258 38.9927 78.3428 34.6787C79.2596 30.3648 78.6422 27.0434 76.4912 24.7139C74.3402 22.3843 71.148 21.2188 66.9141 21.2188H40.4512L34.7295 48.1387Z" fill="white"/>
<path d="M163.541 80.3055C169.955 80.3055 176.144 81.2541 182.106 83.1512C188.069 85.0031 193.376 87.6229 198.028 91.0106C202.681 94.3531 206.407 98.6217 209.208 103.816C212.008 108.965 213.409 114.634 213.409 120.822C213.409 127.552 212.189 134.012 209.75 140.2C207.356 146.343 204.171 151.29 200.196 155.039C196.222 158.788 192.089 160.662 187.798 160.662C182.242 160.662 178.041 156.958 175.195 149.551C172.53 152.803 169.707 155.242 166.726 156.868C163.744 158.494 159.882 159.307 155.14 159.307C149.584 159.307 144.706 157.297 140.505 153.277C136.349 149.212 134.271 144.356 134.271 138.71V136.27C134.272 131.573 135.333 127.078 137.456 122.787C139.624 118.496 142.854 114.927 147.145 112.082C151.481 109.236 156.404 107.813 161.915 107.813C167.877 107.813 172.666 109.621 176.279 113.234L179.531 118.112C180.164 116.034 181.022 112.827 182.106 108.491H190.372L184.139 142.843C184.139 147.856 186.127 150.363 190.102 150.363C194.347 148.556 197.396 145.462 199.248 141.081C201.1 136.699 202.026 131.934 202.026 126.785C202.026 121.59 201.348 116.937 199.993 112.827C198.638 108.717 196.808 105.329 194.505 102.664C192.201 99.9991 189.424 97.808 186.172 96.0916C182.965 94.33 179.599 93.0878 176.076 92.3651C172.553 91.6423 168.781 91.2811 164.761 91.2811C159.25 91.2811 154.033 92.2075 149.109 94.0594C144.186 95.9113 139.782 98.5765 135.897 102.055C132.058 105.533 128.986 110.049 126.683 115.605C124.424 121.116 123.295 127.282 123.295 134.102C123.295 138.529 124.018 142.752 125.463 146.772C126.953 150.747 129.009 154.248 131.629 157.274C134.249 160.255 137.275 162.853 140.708 165.066C144.186 167.28 147.958 168.951 152.023 170.08C156.134 171.209 160.335 171.774 164.626 171.774C170.136 171.774 175.466 171.006 180.615 169.471L183.868 179.362C177.725 181.711 169.956 182.886 160.561 182.886C154.011 182.886 147.687 181.621 141.589 179.092C135.491 176.517 130.139 173.039 125.531 168.657C120.969 164.276 117.31 158.991 114.555 152.803C111.799 146.569 110.422 139.974 110.422 133.018C110.422 126.604 111.393 120.574 113.335 114.928C115.322 109.281 118.011 104.381 121.398 100.225C124.786 96.0246 128.716 92.411 133.188 89.3846C137.704 86.3583 142.537 84.0998 147.687 82.6092C152.881 81.0735 158.166 80.3055 163.541 80.3055ZM163.684 116.97C163.08 115.321 160.747 115.321 160.146 116.97L157.328 124.71C156.756 126.274 155.522 127.508 153.957 128.078L146.217 130.9C144.568 131.503 144.568 133.836 146.217 134.436L153.957 137.256C155.522 137.828 156.756 139.062 157.328 140.627L160.146 148.367C160.747 150.016 163.083 150.016 163.684 148.367L166.503 140.627C167.075 139.062 168.309 137.828 169.874 137.256L177.614 134.436C179.262 133.836 179.262 131.503 177.614 130.9L169.874 128.078C168.309 127.508 167.075 126.274 166.503 124.71L163.684 116.97Z" fill="white"/>
</svg>
